<svg width="345" height="177" viewBox="0 0 345 177" fill="none" xmlns="http://www.w3.org/2000/svg">
<path d="M0 7.46269V0.710733H9.50737V13.6954L30 14V21.5H9.50737V47.5H15V52.6957H0V7.46269Z" fill="#092148"/>
<path d="M84.4826 26.7032C84.4826 32.2537 83.4673 37.0258 81.4366 41.0194C79.406 44.9961 76.6223 48.0591 73.0855 50.2082C69.5657 52.3404 65.5636 53.4065 61.0792 53.4065C56.5779 53.4065 52.5589 52.3404 49.0222 50.2082C45.5023 48.0591 42.7271 44.9877 40.6964 40.994C38.6658 37.0004 37.6504 32.2368 37.6504 26.7032C37.6504 21.1528 38.6658 16.3892 40.6964 12.4124C42.7271 8.4188 45.5023 5.35588 49.0222 3.22368C52.5589 1.07456 56.5779 0 61.0792 0C65.5636 0 69.5657 1.07456 73.0855 3.22368C76.6223 5.35588 79.406 8.4188 81.4366 12.4124C83.4673 16.3892 84.4826 21.1528 84.4826 26.7032ZM76.7153 26.7032C76.7153 22.4727 76.03 18.9106 74.6593 16.0169C73.3055 13.1062 71.4441 10.9064 69.0749 9.41721C66.7228 7.91113 64.0575 7.15809 61.0792 7.15809C58.084 7.15809 55.4103 7.91113 53.0581 9.41721C50.7059 10.9064 48.8445 13.1062 47.4738 16.0169C46.12 18.9106 45.4431 22.4727 45.4431 26.7032C45.4431 30.9338 46.12 34.5044 47.4738 37.415C48.8445 40.3087 50.7059 42.5086 53.0581 44.0147C55.4103 45.5038 58.084 46.2484 61.0792 46.2484C64.0575 46.2484 66.7228 45.5038 69.0749 44.0147C71.4441 42.5086 73.3055 40.3087 74.6593 37.415C76.03 34.5044 76.7153 30.9338 76.7153 26.7032Z" fill="#092148"/>
<path d="M94.2615 52.6957V0.710733H102.105V25.5356H102.74L124.544 0.710733H134.418L113.451 24.1141L134.494 52.6957H125.051L108.248 29.47L102.105 36.5266V52.6957H94.2615Z" fill="#092148"/>
<path d="M184.302 26.7032C184.302 32.2537 183.287 37.0258 181.256 41.0194C179.226 44.9961 176.442 48.0591 172.905 50.2082C169.386 52.3404 165.383 53.4065 160.899 53.4065C156.398 53.4065 152.379 52.3404 148.842 50.2082C145.322 48.0591 142.547 44.9877 140.516 40.994C138.486 37.0004 137.47 32.2368 137.47 26.7032C137.47 21.1528 138.486 16.3892 140.516 12.4124C142.547 8.4188 145.322 5.35588 148.842 3.22368C152.379 1.07456 156.398 0 160.899 0C165.383 0 169.386 1.07456 172.905 3.22368C176.442 5.35588 179.226 8.4188 181.256 12.4124C183.287 16.3892 184.302 21.1528 184.302 26.7032ZM176.535 26.7032C176.535 22.4727 175.85 18.9106 174.479 16.0169C173.125 13.1062 171.264 10.9064 168.895 9.41721C166.543 7.91113 163.877 7.15809 160.899 7.15809C157.904 7.15809 155.23 7.91113 152.878 9.41721C150.526 10.9064 148.664 13.1062 147.294 16.0169C145.94 18.9106 145.263 22.4727 145.263 26.7032C145.263 30.9338 145.94 34.5044 147.294 37.415C148.664 40.3087 150.526 42.5086 152.878 44.0147C155.23 45.5038 157.904 46.2484 160.899 46.2484C163.877 46.2484 166.543 45.5038 168.895 44.0147C171.264 42.5086 173.125 40.3087 174.479 37.415C175.85 34.5044 176.535 30.9338 176.535 26.7032Z" fill="#092148"/>
<path d="M0.000149168 114.389V62.4043H19.0376C22.7267 62.4043 25.7811 63.0135 28.201 64.2319C30.6209 65.4333 32.4315 67.0663 33.633 69.1308C34.8345 71.1784 35.4352 73.4883 35.4352 76.0605C35.4352 78.2265 35.0376 80.0541 34.2422 81.5433C33.4469 83.0155 32.3808 84.2001 31.0439 85.0969C29.724 85.9769 28.2687 86.6199 26.678 87.0261V87.5337C28.4041 87.6183 30.0878 88.1768 31.7293 89.209C33.3876 90.2244 34.7583 91.6712 35.8414 93.5496C36.9244 95.4279 37.4659 97.7124 37.4659 100.403C37.4659 103.06 36.8398 105.446 35.5875 107.561C34.3522 109.66 32.44 111.326 29.8509 112.562C27.2618 113.78 23.9535 114.389 19.926 114.389H0.000149168ZM7.84359 107.663H19.1645C22.9213 107.663 25.6119 106.935 27.2364 105.48C28.861 104.024 29.6732 102.205 29.6732 100.022C29.6732 98.3809 29.2586 96.8748 28.4294 95.5041C27.6003 94.1334 26.4157 93.0419 24.8758 92.2296C23.3528 91.4174 21.5421 91.0113 19.4438 91.0113H7.84359V107.663ZM7.84359 84.8939H18.3523C20.1122 84.8939 21.6944 84.5554 23.099 83.8785C24.5204 83.2017 25.6457 82.254 26.4749 81.0356C27.321 79.8003 27.7441 78.345 27.7441 76.6697C27.7441 74.5206 26.9911 72.7183 25.485 71.263C23.9789 69.8077 21.669 69.0801 18.5553 69.0801H7.84359V84.8939Z" fill="#092148"/>
<path d="M80.1987 62.4043H88.0675V96.5956C88.0675 100.234 87.2129 103.458 85.5038 106.267C83.7946 109.059 81.3917 111.259 78.2949 112.866C75.1982 114.457 71.5683 115.252 67.4055 115.252C63.2595 115.252 59.6382 114.457 56.5415 112.866C53.4447 111.259 51.0417 109.059 49.3326 106.267C47.6234 103.458 46.7689 100.234 46.7689 96.5956V62.4043H54.6123V95.961C54.6123 98.3132 55.1284 100.403 56.1607 102.231C57.2099 104.058 58.6906 105.497 60.6028 106.546C62.515 107.578 64.7825 108.094 67.4055 108.094C70.0453 108.094 72.3214 107.578 74.2336 106.546C76.1627 105.497 77.635 104.058 78.6503 102.231C79.6825 100.403 80.1987 98.3132 80.1987 95.961V62.4043Z" fill="#092148"/>
<path d="M99.4709 114.389V62.4043H107.314V87.2291H107.949L129.753 62.4043H139.627L118.661 85.8077L139.703 114.389H130.261L113.457 91.1635L107.314 98.2201V114.389H99.4709Z" fill="#092148"/>
<path d="M180.368 62.4043H188.236V96.5956C188.236 100.234 187.382 103.458 185.673 106.267C183.963 109.059 181.561 111.259 178.464 112.866C175.367 114.457 171.737 115.252 167.574 115.252C163.428 115.252 159.807 114.457 156.71 112.866C153.614 111.259 151.211 109.059 149.501 106.267C147.792 103.458 146.938 100.234 146.938 96.5956V62.4043H154.781V95.961C154.781 98.3132 155.297 100.403 156.33 102.231C157.379 104.058 158.859 105.497 160.772 106.546C162.684 107.578 164.951 108.094 167.574 108.094C170.214 108.094 172.49 107.578 174.402 106.546C176.332 105.497 177.804 104.058 178.819 102.231C179.851 100.403 180.368 98.3132 180.368 95.961V62.4043Z" fill="#092148"/>
<path d="M7.84359 176.083H0.000231791L0.000149168 124.098H13.2785L42.8963 176.083H34.2168L9.50737 131.125H7.30514L7.84359 176.083ZM5.78754 155.725H27.9106V162.325H5.78754V155.725Z" fill="#092148"/>
<path d="M50.0497 176.083V124.098H69.0871C72.7762 124.098 75.8306 124.707 78.2505 125.925C80.6704 127.127 82.481 128.76 83.6825 130.824C84.884 132.872 85.4847 135.182 85.4847 137.754C85.4847 139.92 85.0871 141.748 84.2917 143.237C83.4964 144.709 82.4303 145.894 81.0934 146.79C79.7735 147.67 78.3182 148.313 76.7275 148.72V149.227C78.4536 149.312 80.1373 149.87 81.7788 150.903C83.4371 151.918 84.8078 153.365 85.8909 155.243C86.9739 157.121 87.5154 159.406 87.5154 162.097C87.5154 164.753 86.8893 167.139 85.637 169.255C84.4017 171.353 82.4895 173.02 79.9004 174.255C77.3113 175.474 74.003 176.083 69.9755 176.083H50.0497ZM57.8931 169.356H69.214C72.9708 169.356 75.6614 168.629 77.2859 167.173C78.9105 165.718 79.7227 163.899 79.7227 161.716C79.7227 160.074 79.3081 158.568 78.479 157.198C77.6498 155.827 76.4652 154.735 74.9253 153.923C73.4023 153.111 71.5916 152.705 69.4933 152.705H57.8931V169.356ZM57.8931 146.587H68.4018C70.1617 146.587 71.7439 146.249 73.1485 145.572C74.5699 144.895 75.6952 143.948 76.5244 142.729C77.3705 141.494 77.7936 140.038 77.7936 138.363C77.7936 136.214 77.0406 134.412 75.5345 132.957C74.0284 131.501 71.7185 130.774 68.6048 130.774H57.8931V146.587Z" fill="#092148"/>
<path d="M101.21 176.083H92.884L111.591 124.098H120.653L139.361 176.083H131.035L116.338 133.54H115.932L101.21 176.083ZM102.606 155.725H129.614V162.325H102.606V155.725Z" fill="#092148"/>
<path d="M163.697 176.083H146.868V124.098H164.23C169.324 124.098 173.698 125.138 177.353 127.22C181.008 129.284 183.809 132.254 185.755 136.129C187.718 139.988 188.7 144.616 188.7 150.014C188.7 155.429 187.71 160.083 185.73 163.975C183.767 167.867 180.924 170.862 177.201 172.961C173.478 175.042 168.977 176.083 163.697 176.083ZM154.711 169.229H163.266C167.225 169.229 170.517 168.485 173.14 166.996C175.763 165.489 177.726 163.315 179.029 160.472C180.332 157.612 180.983 154.126 180.983 150.014C180.983 145.936 180.332 142.475 179.029 139.632C177.742 136.789 175.822 134.632 173.267 133.16C170.711 131.687 167.538 130.951 163.748 130.951H154.711V169.229Z" fill="#092148"/>
<path d="M206.297 124.098V176.083H198.453V124.098H206.297Z" fill="#092148"/>
<path d="M164 1H336.068C348.485 19.5742 347.458 31.0996 336.068 53H164V47.4286C182.112 47.4286 182.112 6.57143 164 6.57143V1Z" fill="#092148"/>
<path d="M194 62H337.549C347.907 80.9314 347.051 92.6785 337.549 115H194V109.321C209.11 109.321 209.11 67.6786 194 67.6786V62Z" fill="#092148"/>
<path d="M214 124H337.612C347.883 142.574 347.033 154.1 337.612 176H214V170.429C228.983 170.429 228.983 129.571 214 129.571V124Z" fill="#092148"/>
</svg>
